<?xml version="1.0" encoding="UTF-8"?>
<svg id="Layer_1" xmlns="http://www.w3.org/2000/svg" version="1.1" viewBox="0 0 493 75">
  <!-- Generator: Adobe Illustrator 29.5.1, SVG Export Plug-In . SVG Version: 2.1.0 Build 141)  -->
  <path d="M25.9,23l7.5,20h-4.6l-1.5-4.5h-7.5l-1.6,4.5h-4.4l7.6-20h4.5ZM26.2,35.3l-2.5-7.3h0l-2.6,7.3h5.2Z"/>
  <path d="M44.1,23c1.2,0,2.3.2,3.2.5.9.4,1.6.8,2.1,1.4.6.6,1,1.3,1.2,2,.3.8.4,1.6.4,2.4s-.1,1.6-.4,2.4c-.3.8-.7,1.5-1.2,2.1-.6.6-1.3,1.1-2.1,1.4-.9.4-1.9.5-3.2.5h-4.6v7.2h-4.4v-20h9ZM42.9,32.4c.5,0,1,0,1.5-.1.5,0,.9-.2,1.2-.4.4-.2.6-.5.9-.9.2-.4.3-.9.3-1.5s-.1-1.1-.3-1.5c-.2-.4-.5-.7-.9-.9-.4-.2-.8-.4-1.2-.4-.5,0-1-.1-1.5-.1h-3.4v6h3.4Z"/>
  <path d="M58.2,23v16.3h9.7v3.7h-14.1v-20h4.4Z"/>
  <path d="M91,28.3c-.3-.4-.6-.8-1-1.1-.4-.3-.8-.6-1.3-.7s-1-.3-1.6-.3c-1,0-1.8.2-2.5.6-.7.4-1.3.9-1.7,1.5-.4.6-.7,1.4-.9,2.2-.2.8-.3,1.7-.3,2.5s0,1.7.3,2.5c.2.8.5,1.5.9,2.1.4.6,1,1.1,1.7,1.5.7.4,1.5.6,2.5.6s2.4-.4,3.1-1.2c.8-.8,1.2-1.9,1.4-3.2h4.3c-.1,1.3-.4,2.4-.9,3.4-.5,1-1.1,1.9-1.8,2.6-.8.7-1.7,1.3-2.7,1.6-1,.4-2.2.6-3.4.6s-2.9-.3-4.1-.8c-1.2-.5-2.3-1.3-3.1-2.2-.8-.9-1.5-2-1.9-3.3-.4-1.3-.7-2.6-.7-4.1s.2-2.9.7-4.2c.4-1.3,1.1-2.4,1.9-3.3s1.9-1.7,3.1-2.2c1.2-.5,2.6-.8,4.1-.8s2.1.2,3.1.5c1,.3,1.9.8,2.6,1.4.8.6,1.4,1.4,1.9,2.3s.8,1.9,1,3.1h-4.3c0-.5-.2-1-.5-1.4Z"/>
  <path d="M98.6,32.6c.4-.9.9-1.7,1.5-2.4.7-.7,1.4-1.2,2.4-1.5.9-.4,1.9-.5,3.1-.5s2.2.2,3.1.5c.9.4,1.7.9,2.4,1.5.7.7,1.2,1.5,1.5,2.4.4.9.5,2,.5,3.1s-.2,2.2-.5,3.1c-.4.9-.9,1.7-1.5,2.4-.7.7-1.4,1.2-2.4,1.5-.9.4-2,.5-3.1.5s-2.2-.2-3.1-.5-1.7-.9-2.4-1.5c-.7-.7-1.2-1.5-1.5-2.4-.4-.9-.5-2-.5-3.1s.2-2.2.5-3.1ZM102.2,37.5c.1.6.3,1,.6,1.5.3.4.6.8,1.1,1,.4.3,1,.4,1.7.4s1.2-.1,1.7-.4.8-.6,1.1-1c.3-.4.5-.9.6-1.5.1-.6.2-1.1.2-1.7s0-1.1-.2-1.7c-.1-.6-.3-1.1-.6-1.5-.3-.4-.6-.8-1.1-1s-1-.4-1.7-.4-1.2.1-1.7.4c-.4.3-.8.6-1.1,1-.3.4-.5.9-.6,1.5s-.2,1.1-.2,1.7,0,1.1.2,1.7Z"/>
  <path d="M119.5,28.5v2h0c.5-.7,1.2-1.3,1.9-1.7s1.6-.6,2.5-.6,1.8.2,2.5.5c.8.4,1.3,1,1.7,1.9.4-.6,1-1.2,1.8-1.7.7-.5,1.6-.7,2.6-.7s1.5,0,2.1.3c.7.2,1.2.5,1.7.9s.8.9,1.1,1.6c.3.7.4,1.5.4,2.4v9.7h-4v-8.2c0-.5,0-.9,0-1.4,0-.4-.1-.8-.3-1.1s-.4-.6-.7-.8c-.3-.2-.8-.3-1.3-.3s-1,.1-1.4.3c-.3.2-.6.5-.8.8-.2.3-.3.7-.4,1.2,0,.4,0,.9,0,1.3v8.1h-4v-8.1c0-.4,0-.9,0-1.3s0-.8-.2-1.2c-.1-.4-.4-.6-.7-.9-.3-.2-.8-.3-1.4-.3s-.4,0-.7.1-.6.2-.9.5c-.3.2-.5.6-.7,1-.2.4-.3,1-.3,1.7v8.4h-4v-14.5h3.8Z"/>
  <path d="M144.8,28.5v1.8h0c.5-.8,1.1-1.4,1.8-1.7.7-.4,1.6-.5,2.5-.5s2.1.2,2.9.6c.8.4,1.5,1,2,1.7.5.7.9,1.5,1.2,2.5.3.9.4,1.9.4,3s-.1,1.9-.4,2.8c-.3.9-.7,1.7-1.2,2.4-.5.7-1.2,1.2-2,1.7s-1.7.6-2.8.6-1.7-.2-2.5-.5c-.8-.4-1.4-.9-1.9-1.6h0v6.9h-4v-19.5h3.8ZM149.9,40c.4-.3.8-.6,1.1-1,.3-.4.5-.9.6-1.5.1-.6.2-1.1.2-1.7s0-1.1-.2-1.7c-.1-.6-.3-1.1-.6-1.5s-.6-.8-1.1-1.1-1-.4-1.6-.4-1.2.1-1.6.4-.8.6-1.1,1c-.3.4-.5.9-.6,1.5-.1.6-.2,1.1-.2,1.7s0,1.1.2,1.7.3,1.1.6,1.5c.3.4.6.8,1.1,1,.4.3,1,.4,1.6.4s1.2-.1,1.6-.4Z"/>
  <path d="M167.9,43v-2h0c-.5.8-1.2,1.4-2,1.8-.8.4-1.6.6-2.5.6s-1.9-.1-2.6-.4c-.7-.3-1.2-.7-1.6-1.2-.4-.5-.7-1.1-.8-1.9-.2-.7-.2-1.6-.2-2.4v-8.9h4v8.2c0,1.2.2,2.1.6,2.7s1,.9,2,.9,1.9-.3,2.4-1c.5-.6.7-1.7.7-3.2v-7.6h4v14.5h-3.8Z"/>
  <path d="M182.6,28.5v2.7h-2.9v7.2c0,.7.1,1.1.3,1.3.2.2.7.3,1.3.3s.4,0,.6,0c.2,0,.4,0,.6,0v3.1c-.3,0-.7,0-1.1.1-.4,0-.8,0-1.2,0-.6,0-1.2,0-1.8-.1-.6,0-1-.2-1.5-.5-.4-.2-.8-.6-1-1-.2-.4-.4-1-.4-1.8v-8.5h-2.4v-2.7h2.4v-4.3h4v4.3h2.9Z"/>
  <path d="M184.4,33c0-.9.3-1.7.7-2.3.4-.6.9-1.1,1.6-1.5.6-.4,1.3-.6,2.1-.8s1.6-.2,2.4-.2,1.5,0,2.2.2c.7.1,1.4.3,2,.6.6.3,1.1.7,1.5,1.2.4.5.6,1.2.6,2.1v7.5c0,.7,0,1.3.1,1.9,0,.6.2,1,.4,1.3h-4c0-.2-.1-.5-.2-.7s0-.5,0-.7c-.6.7-1.4,1.1-2.2,1.4-.9.3-1.7.4-2.6.4s-1.3,0-1.9-.3c-.6-.2-1.1-.4-1.6-.8-.4-.4-.8-.8-1.1-1.3s-.4-1.2-.4-1.9.1-1.5.4-2c.3-.5.7-1,1.1-1.3.5-.3,1-.6,1.6-.7s1.2-.3,1.8-.4c.6,0,1.2-.2,1.8-.2.6,0,1.1-.1,1.5-.3.4-.1.8-.3,1.1-.5.3-.2.4-.5.4-.9,0-.4,0-.8-.2-1-.1-.3-.3-.4-.6-.6s-.5-.2-.8-.3c-.3,0-.6,0-1,0-.8,0-1.4.2-1.8.5-.4.3-.7.9-.8,1.7h-4ZM193.6,35.9c-.2.1-.4.3-.6.4-.3,0-.5.2-.8.2-.3,0-.6.1-.9.1s-.6,0-1,.1c-.3,0-.6.1-.9.2-.3,0-.5.2-.8.4-.2.2-.4.4-.5.6-.1.2-.2.6-.2.9s0,.7.2.9c.1.2.3.4.5.6.2.1.5.2.8.3.3,0,.6,0,.9,0,.8,0,1.4-.1,1.8-.4.4-.3.7-.6,1-.9.2-.4.3-.7.4-1.1,0-.4,0-.7,0-.9v-1.5Z"/>
  <path d="M208.6,28.5v2.7h-2.9v7.2c0,.7.1,1.1.3,1.3.2.2.7.3,1.3.3s.4,0,.6,0c.2,0,.4,0,.6,0v3.1c-.3,0-.7,0-1.1.1-.4,0-.8,0-1.2,0-.6,0-1.2,0-1.8-.1s-1-.2-1.5-.5c-.4-.2-.8-.6-1-1-.2-.4-.4-1-.4-1.8v-8.5h-2.4v-2.7h2.4v-4.3h4v4.3h2.9Z"/>
  <path d="M210.6,26.3v-3.3h4v3.3h-4ZM214.6,28.5v14.5h-4v-14.5h4Z"/>
  <path d="M217.8,32.6c.4-.9.9-1.7,1.5-2.4.7-.7,1.4-1.2,2.4-1.5.9-.4,1.9-.5,3.1-.5s2.2.2,3.1.5c.9.4,1.7.9,2.4,1.5.7.7,1.2,1.5,1.5,2.4.4.9.5,2,.5,3.1s-.2,2.2-.5,3.1c-.4.9-.9,1.7-1.5,2.4-.7.7-1.4,1.2-2.4,1.5s-2,.5-3.1.5-2.2-.2-3.1-.5c-.9-.4-1.7-.9-2.4-1.5-.7-.7-1.2-1.5-1.5-2.4-.4-.9-.5-2-.5-3.1s.2-2.2.5-3.1ZM221.4,37.5c.1.6.3,1,.6,1.5.3.4.6.8,1.1,1,.4.3,1,.4,1.7.4s1.2-.1,1.7-.4c.5-.3.8-.6,1.1-1s.5-.9.6-1.5c.1-.6.2-1.1.2-1.7s0-1.1-.2-1.7c-.1-.6-.3-1.1-.6-1.5-.3-.4-.6-.8-1.1-1-.5-.3-1-.4-1.7-.4s-1.2.1-1.7.4c-.4.3-.8.6-1.1,1-.3.4-.5.9-.6,1.5s-.2,1.1-.2,1.7,0,1.1.2,1.7Z"/>
  <path d="M238.6,28.5v2h0c.5-.8,1.2-1.5,2-1.8.8-.4,1.6-.6,2.5-.6s1.9.1,2.6.4c.7.3,1.2.7,1.6,1.2.4.5.7,1.1.8,1.9.2.7.2,1.6.2,2.5v8.9h-4v-8.2c0-1.2-.2-2.1-.6-2.7s-1-.9-2-.9-1.9.3-2.4,1-.7,1.7-.7,3.2v7.6h-4v-14.5h3.8Z"/>
  <path d="M251.2,33c0-.9.3-1.7.7-2.3.4-.6.9-1.1,1.6-1.5.6-.4,1.3-.6,2.1-.8.8-.2,1.6-.2,2.4-.2s1.5,0,2.2.2c.7.1,1.4.3,2,.6.6.3,1.1.7,1.5,1.2.4.5.6,1.2.6,2.1v7.5c0,.7,0,1.3.1,1.9,0,.6.2,1,.4,1.3h-4c0-.2-.1-.5-.2-.7s0-.5,0-.7c-.6.7-1.4,1.1-2.2,1.4-.9.3-1.7.4-2.6.4s-1.3,0-1.9-.3-1.1-.4-1.6-.8-.8-.8-1-1.3-.4-1.2-.4-1.9.1-1.5.4-2c.3-.5.7-1,1.1-1.3.5-.3,1-.6,1.6-.7.6-.2,1.2-.3,1.8-.4.6,0,1.2-.2,1.8-.2.6,0,1.1-.1,1.5-.3.4-.1.8-.3,1.1-.5.3-.2.4-.5.4-.9,0-.4,0-.8-.2-1-.1-.3-.3-.4-.6-.6s-.5-.2-.8-.3c-.3,0-.6,0-1,0-.8,0-1.4.2-1.8.5-.4.3-.7.9-.8,1.7h-4ZM260.4,35.9c-.2.1-.4.3-.6.4s-.5.2-.8.2c-.3,0-.6.1-.9.1s-.6,0-1,.1c-.3,0-.6.1-.9.2-.3,0-.5.2-.8.4-.2.2-.4.4-.5.6-.1.2-.2.6-.2.9s0,.7.2.9c.1.2.3.4.5.6.2.1.5.2.8.3.3,0,.6,0,.9,0,.8,0,1.4-.1,1.8-.4s.7-.6,1-.9c.2-.4.3-.7.4-1.1,0-.4,0-.7,0-.9v-1.5Z"/>
  <path d="M271.6,23v20h-4v-20h4Z"/>
  <path d="M291.9,23c1.2,0,2.3.2,3.2.5.9.4,1.6.8,2.1,1.4.5.6,1,1.3,1.2,2,.3.8.4,1.6.4,2.4s-.1,1.6-.4,2.4c-.3.8-.7,1.5-1.2,2.1-.6.6-1.3,1.1-2.1,1.4-.9.4-1.9.5-3.2.5h-4.6v7.2h-4.4v-20h9ZM290.7,32.4c.5,0,1,0,1.5-.1.5,0,.9-.2,1.2-.4.4-.2.6-.5.9-.9.2-.4.3-.9.3-1.5s-.1-1.1-.3-1.5c-.2-.4-.5-.7-.9-.9s-.8-.4-1.2-.4c-.5,0-1-.1-1.5-.1h-3.4v6h3.4Z"/>
  <path d="M305.1,23v7.5h0c.5-.8,1.1-1.5,1.9-1.8.8-.4,1.5-.6,2.3-.6,1.1,0,1.9.1,2.6.4.7.3,1.2.7,1.6,1.2.4.5.7,1.1.8,1.9.2.7.2,1.6.2,2.5v8.9h-4v-8.2c0-1.2-.2-2.1-.6-2.7s-1-.9-2-.9-1.9.3-2.4,1-.7,1.7-.7,3.2v7.6h-4v-20h4Z"/>
  <path d="M323.1,47.3c-.8.5-1.8.8-3.2.8s-.8,0-1.2,0c-.4,0-.8,0-1.2,0v-3.3c.4,0,.8,0,1.1.1.4,0,.8,0,1.2,0,.5,0,.9-.3,1.2-.6s.4-.7.4-1.2,0-.6-.2-.9l-5.1-13.6h4.2l3.3,9.9h0l3.2-9.9h4.1l-6,16.3c-.4,1.2-1,2-1.8,2.5Z"/>
  <path d="M335.6,39.4c.2.3.4.6.7.8.3.2.6.3,1,.4.4,0,.7.1,1.1.1s.6,0,.9,0c.3,0,.6-.2.8-.3.3-.1.5-.3.6-.6.2-.2.3-.5.3-.9,0-.6-.4-1-1.2-1.3-.8-.3-1.9-.6-3.3-.9-.6-.1-1.1-.3-1.7-.5-.6-.2-1-.4-1.5-.7-.4-.3-.8-.7-1-1.1-.3-.4-.4-1-.4-1.6,0-.9.2-1.7.5-2.3.4-.6.8-1.1,1.4-1.4.6-.3,1.3-.6,2-.7.7-.1,1.5-.2,2.3-.2s1.5,0,2.3.2c.7.1,1.4.4,2,.8.6.4,1.1.8,1.4,1.4.4.6.6,1.3.7,2.2h-3.8c0-.8-.3-1.3-.9-1.6s-1.1-.4-1.8-.4-.5,0-.7,0c-.3,0-.5,0-.7.2-.2,0-.4.2-.5.4-.1.2-.2.4-.2.7s.1.6.4.9.6.4,1,.5c.4.1.9.3,1.4.4.5.1,1.1.2,1.7.4.6.1,1.1.3,1.7.5.5.2,1,.4,1.5.7.4.3.8.7,1,1.1.3.5.4,1,.4,1.7,0,1-.2,1.8-.6,2.4-.4.6-.9,1.2-1.5,1.6-.6.4-1.3.7-2.1.8-.8.2-1.6.2-2.4.2s-1.7,0-2.5-.3c-.8-.2-1.5-.4-2.1-.8-.6-.4-1.1-.9-1.5-1.6s-.6-1.5-.7-2.4h3.8c0,.4,0,.8.3,1.1Z"/>
  <path d="M347.4,26.3v-3.3h4v3.3h-4ZM351.4,28.5v14.5h-4v-14.5h4Z"/>
  <path d="M361.5,31.1c-.6,0-1.2.1-1.6.4-.4.3-.8.7-1,1.1-.3.5-.5,1-.6,1.5-.1.6-.2,1.1-.2,1.6s0,1.1.2,1.6.3,1,.5,1.5c.3.4.6.8,1,1.1.4.3,1,.4,1.6.4,1,0,1.7-.3,2.2-.8.5-.5.8-1.2,1-2.1h3.8c-.3,1.9-1,3.4-2.2,4.4-1.2,1-2.8,1.5-4.7,1.5s-2.1-.2-3-.5c-.9-.4-1.7-.9-2.3-1.5s-1.1-1.4-1.5-2.3-.5-1.9-.5-3,.2-2.2.5-3.1c.3-1,.8-1.8,1.4-2.5.6-.7,1.4-1.2,2.3-1.6.9-.4,2-.6,3.1-.6s1.7.1,2.5.3c.8.2,1.5.6,2.1,1,.6.5,1.1,1,1.5,1.7.4.7.6,1.5.7,2.4h-3.9c-.3-1.7-1.2-2.5-2.9-2.5Z"/>
  <path d="M374,39.4c.2.3.4.6.7.8.3.2.6.3,1,.4.4,0,.7.1,1.1.1s.6,0,.9,0c.3,0,.6-.2.8-.3.3-.1.5-.3.6-.6.2-.2.3-.5.3-.9,0-.6-.4-1-1.2-1.3-.8-.3-1.9-.6-3.3-.9-.6-.1-1.1-.3-1.7-.5-.6-.2-1-.4-1.5-.7-.4-.3-.8-.7-1-1.1-.3-.4-.4-1-.4-1.6,0-.9.2-1.7.5-2.3.4-.6.8-1.1,1.4-1.4.6-.3,1.3-.6,2-.7.7-.1,1.5-.2,2.3-.2s1.5,0,2.3.2c.7.1,1.4.4,2,.8.6.4,1.1.8,1.4,1.4.4.6.6,1.3.7,2.2h-3.8c0-.8-.3-1.3-.9-1.6s-1.1-.4-1.8-.4-.5,0-.7,0c-.3,0-.5,0-.7.2-.2,0-.4.2-.5.4-.1.2-.2.4-.2.7s.1.6.4.9.6.4,1,.5c.4.1.9.3,1.4.4.5.1,1.1.2,1.7.4.6.1,1.1.3,1.7.5.5.2,1,.4,1.5.7.4.3.8.7,1,1.1.3.5.4,1,.4,1.7,0,1-.2,1.8-.6,2.4-.4.6-.9,1.2-1.5,1.6-.6.4-1.3.7-2.1.8-.8.2-1.6.2-2.4.2s-1.7,0-2.5-.3c-.8-.2-1.5-.4-2.1-.8-.6-.4-1.1-.9-1.5-1.6s-.6-1.5-.7-2.4h3.8c0,.4,0,.8.3,1.1Z"/>
</svg>