<?xml version="1.0" encoding="utf-8"?>
<!-- Generator: Adobe Illustrator 27.3.1, SVG Export Plug-In . SVG Version: 6.00 Build 0)  -->
<svg version="1.1" id="Layer_1" xmlns="http://www.w3.org/2000/svg" xmlns:xlink="http://www.w3.org/1999/xlink" x="0px" y="0px"
	 viewBox="0 0 499 75" style="enable-background:new 0 0 499 75;" xml:space="preserve">
<style type="text/css">
	.st0{enable-background:new    ;}
	.st1{fill:#010101;}
</style>
<g class="st0">
	<path class="st1" d="M34.2,26.9c-0.3-0.4-0.6-0.8-1-1.1s-0.8-0.6-1.3-0.7s-1-0.3-1.6-0.3c-1,0-1.8,0.2-2.5,0.6s-1.3,0.9-1.7,1.5
		s-0.7,1.4-0.9,2.2c-0.2,0.8-0.3,1.7-0.3,2.5c0,0.8,0.1,1.7,0.3,2.5s0.5,1.5,0.9,2.1s1,1.1,1.7,1.5s1.5,0.6,2.5,0.6
		c1.3,0,2.4-0.4,3.1-1.2s1.2-1.9,1.4-3.2h4.3c-0.1,1.3-0.4,2.4-0.9,3.4s-1.1,1.9-1.8,2.6c-0.8,0.7-1.7,1.3-2.7,1.6s-2.2,0.6-3.4,0.6
		c-1.5,0-2.9-0.3-4.1-0.8c-1.2-0.5-2.3-1.3-3.1-2.2s-1.5-2-1.9-3.3s-0.7-2.6-0.7-4.1c0-1.5,0.2-2.9,0.7-4.2c0.4-1.3,1.1-2.4,1.9-3.3
		s1.9-1.7,3.1-2.2c1.2-0.5,2.6-0.8,4.1-0.8c1.1,0,2.1,0.2,3.1,0.5s1.9,0.8,2.6,1.4c0.8,0.6,1.4,1.4,1.9,2.3s0.8,1.9,1,3.1h-4.3
		C34.6,27.8,34.4,27.3,34.2,26.9z"/>
	<path class="st1" d="M45.7,21.6v7.5h0.1c0.5-0.8,1.1-1.5,1.9-1.8c0.8-0.4,1.5-0.6,2.3-0.6c1.1,0,1.9,0.1,2.6,0.4
		c0.7,0.3,1.2,0.7,1.6,1.2c0.4,0.5,0.7,1.1,0.8,1.9c0.2,0.7,0.2,1.6,0.2,2.4v8.9h-4v-8.2c0-1.2-0.2-2.1-0.6-2.7
		c-0.4-0.6-1-0.9-2-0.9c-1.1,0-1.9,0.3-2.4,1c-0.5,0.6-0.7,1.7-0.7,3.2v7.6h-4v-20h4.2V21.6z"/>
	<path class="st1" d="M62.6,38.1c0.6,0.6,1.5,0.9,2.6,0.9c0.8,0,1.5-0.2,2.1-0.6c0.6-0.4,0.9-0.8,1.1-1.3h3.5
		c-0.6,1.7-1.4,3-2.6,3.7c-1.2,0.7-2.6,1.1-4.2,1.1c-1.1,0-2.2-0.2-3.1-0.5c-0.9-0.4-1.7-0.9-2.3-1.6s-1.1-1.5-1.5-2.4
		c-0.3-0.9-0.5-2-0.5-3.1s0.2-2.1,0.5-3c0.4-0.9,0.9-1.7,1.5-2.4c0.7-0.7,1.4-1.2,2.3-1.6c0.9-0.4,1.9-0.6,3-0.6
		c1.2,0,2.3,0.2,3.2,0.7s1.7,1.1,2.3,1.9s1,1.7,1.3,2.7s0.4,2.1,0.3,3.2H61.7C61.6,36.6,62,37.5,62.6,38.1z M67,30.5
		c-0.5-0.5-1.2-0.8-2.2-0.8c-0.6,0-1.2,0.1-1.6,0.3c-0.4,0.2-0.8,0.5-1,0.8s-0.4,0.7-0.5,1c-0.1,0.4-0.2,0.7-0.2,1H68
		C67.9,31.8,67.5,31,67,30.5z"/>
	<path class="st1" d="M78.2,27.1v2h0.1c0.5-0.7,1.2-1.3,1.9-1.7c0.7-0.4,1.6-0.6,2.5-0.6s1.8,0.2,2.5,0.5c0.8,0.4,1.3,1,1.7,1.9
		c0.4-0.6,1-1.2,1.8-1.7c0.7-0.5,1.6-0.7,2.6-0.7c0.8,0,1.5,0.1,2.1,0.3c0.7,0.2,1.2,0.5,1.7,0.9s0.8,0.9,1.1,1.6
		c0.3,0.7,0.4,1.5,0.4,2.4v9.7h-4v-8.2c0-0.5,0-0.9-0.1-1.4c0-0.4-0.1-0.8-0.3-1.1c-0.2-0.3-0.4-0.6-0.7-0.8
		c-0.3-0.2-0.8-0.3-1.3-0.3s-1,0.1-1.4,0.3c-0.3,0.2-0.6,0.5-0.8,0.8c-0.2,0.3-0.3,0.7-0.4,1.2c-0.1,0.4-0.1,0.9-0.1,1.3v8.1h-4
		v-8.1c0-0.4,0-0.9,0-1.3c0-0.4-0.1-0.8-0.2-1.2c-0.1-0.4-0.4-0.6-0.7-0.9c-0.3-0.2-0.8-0.3-1.4-0.3c-0.2,0-0.4,0-0.7,0.1
		s-0.6,0.2-0.9,0.5c-0.3,0.2-0.5,0.6-0.7,1s-0.3,1-0.3,1.7v8.4h-4V27.1H78.2z"/>
	<path class="st1" d="M99.8,24.9v-3.3h4v3.3H99.8z M103.8,27.1v14.5h-4V27.1H103.8z"/>
	<path class="st1" d="M113.9,29.7c-0.6,0-1.2,0.1-1.6,0.4s-0.8,0.7-1,1.1c-0.3,0.5-0.5,1-0.6,1.5s-0.2,1.1-0.2,1.6s0.1,1.1,0.2,1.6
		s0.3,1,0.5,1.5s0.6,0.8,1,1.1s1,0.4,1.6,0.4c1,0,1.7-0.3,2.2-0.8s0.8-1.2,1-2.1h3.8c-0.3,1.9-1,3.4-2.2,4.4s-2.8,1.5-4.7,1.5
		c-1.1,0-2.1-0.2-3-0.5c-0.9-0.4-1.7-0.9-2.3-1.5c-0.6-0.7-1.1-1.4-1.5-2.3c-0.4-0.9-0.5-1.9-0.5-3s0.2-2.2,0.5-3.1
		c0.3-1,0.8-1.8,1.4-2.5s1.4-1.2,2.3-1.6s2-0.6,3.1-0.6c0.9,0,1.7,0.1,2.5,0.3c0.8,0.2,1.5,0.6,2.1,1c0.6,0.5,1.1,1,1.5,1.7
		s0.6,1.5,0.7,2.4h-3.9C116.6,30.5,115.6,29.7,113.9,29.7z"/>
	<path class="st1" d="M122.9,31.6c0.1-0.9,0.3-1.7,0.7-2.3c0.4-0.6,0.9-1.1,1.6-1.5c0.6-0.4,1.3-0.6,2.1-0.8
		c0.8-0.2,1.6-0.2,2.4-0.2c0.7,0,1.5,0.1,2.2,0.2s1.4,0.3,2,0.6c0.6,0.3,1.1,0.7,1.5,1.2s0.6,1.2,0.6,2.1v7.5c0,0.7,0,1.3,0.1,1.9
		c0.1,0.6,0.2,1,0.4,1.3h-4c-0.1-0.2-0.1-0.5-0.2-0.7c0-0.2-0.1-0.5-0.1-0.7c-0.6,0.7-1.4,1.1-2.2,1.4c-0.9,0.3-1.7,0.4-2.6,0.4
		c-0.7,0-1.3-0.1-1.9-0.3s-1.1-0.4-1.6-0.8c-0.4-0.4-0.8-0.8-1.1-1.3c-0.3-0.5-0.4-1.2-0.4-1.9c0-0.8,0.1-1.5,0.4-2s0.7-1,1.1-1.3
		c0.5-0.3,1-0.6,1.6-0.7s1.2-0.3,1.8-0.4c0.6-0.1,1.2-0.2,1.8-0.2c0.6-0.1,1.1-0.1,1.5-0.3c0.4-0.1,0.8-0.3,1.1-0.5
		c0.3-0.2,0.4-0.5,0.4-0.9s-0.1-0.8-0.2-1c-0.1-0.3-0.3-0.4-0.6-0.6c-0.2-0.1-0.5-0.2-0.8-0.3c-0.3,0-0.6-0.1-1-0.1
		c-0.8,0-1.4,0.2-1.8,0.5s-0.7,0.9-0.8,1.7C126.9,31.6,122.9,31.6,122.9,31.6z M132,34.5c-0.2,0.1-0.4,0.3-0.6,0.3s-0.5,0.2-0.8,0.2
		c-0.3,0.1-0.6,0.1-0.9,0.1s-0.6,0.1-1,0.1c-0.3,0.1-0.6,0.1-0.9,0.2c-0.3,0.1-0.5,0.2-0.8,0.4c-0.2,0.2-0.4,0.4-0.5,0.6
		c-0.1,0.2-0.2,0.6-0.2,0.9c0,0.4,0.1,0.7,0.2,0.9s0.3,0.4,0.5,0.6c0.2,0.1,0.5,0.2,0.8,0.3s0.6,0.1,0.9,0.1c0.8,0,1.4-0.1,1.8-0.4
		c0.4-0.3,0.7-0.6,1-0.9c0.2-0.4,0.3-0.7,0.4-1.1c0-0.4,0.1-0.7,0.1-0.9V34.5z"/>
	<path class="st1" d="M143.2,21.6v20h-4v-20C139.2,21.6,143.2,21.6,143.2,21.6z"/>
	<path class="st1" d="M163.5,21.6c1.2,0,2.3,0.2,3.2,0.5c0.9,0.4,1.6,0.8,2.1,1.4s1,1.3,1.2,2s0.4,1.6,0.4,2.4s-0.1,1.6-0.4,2.4
		s-0.7,1.5-1.2,2.1c-0.6,0.6-1.3,1.1-2.1,1.4c-0.9,0.4-1.9,0.5-3.2,0.5h-4.6v7.2h-4.4v-20h9V21.6z M162.3,31c0.5,0,1,0,1.5-0.1
		s0.9-0.2,1.2-0.4c0.4-0.2,0.6-0.5,0.9-0.9s0.3-0.9,0.3-1.5s-0.1-1.1-0.3-1.5c-0.2-0.4-0.5-0.7-0.9-0.9c-0.4-0.2-0.8-0.4-1.2-0.4
		s-1-0.1-1.5-0.1h-3.4v6h3.4V31z"/>
	<path class="st1" d="M176.8,21.6v7.5h0.1c0.5-0.8,1.1-1.5,1.9-1.8c0.8-0.4,1.5-0.6,2.3-0.6c1.1,0,1.9,0.1,2.6,0.4s1.2,0.7,1.6,1.2
		s0.7,1.1,0.8,1.9c0.2,0.7,0.2,1.6,0.2,2.4v8.9h-4v-8.2c0-1.2-0.2-2.1-0.6-2.7s-1-0.9-2-0.9c-1.1,0-1.9,0.3-2.4,1
		c-0.5,0.6-0.7,1.7-0.7,3.2v7.6h-4v-20h4.2V21.6z"/>
	<path class="st1" d="M194.7,45.9c-0.8,0.5-1.8,0.8-3.2,0.8c-0.4,0-0.8,0-1.2,0c-0.4,0-0.8-0.1-1.2-0.1v-3.3c0.4,0,0.8,0.1,1.1,0.1
		c0.4,0,0.8,0,1.2,0c0.5-0.1,0.9-0.3,1.2-0.6s0.4-0.7,0.4-1.2c0-0.3-0.1-0.6-0.2-0.9l-5.1-13.6h4.2l3.3,9.9h0.1l3.2-9.9h4.1l-6,16.3
		C196.1,44.6,195.5,45.4,194.7,45.9z"/>
	<path class="st1" d="M207.3,38c0.2,0.3,0.4,0.6,0.7,0.8c0.3,0.2,0.6,0.3,1,0.4c0.4,0.1,0.7,0.1,1.1,0.1c0.3,0,0.6,0,0.9-0.1
		s0.6-0.2,0.8-0.3c0.3-0.1,0.5-0.3,0.6-0.6c0.2-0.2,0.3-0.5,0.3-0.9c0-0.6-0.4-1-1.2-1.3c-0.8-0.3-1.9-0.6-3.3-0.9
		c-0.6-0.1-1.1-0.3-1.7-0.5s-1-0.4-1.5-0.7c-0.4-0.3-0.8-0.7-1-1.1c-0.3-0.4-0.4-1-0.4-1.6c0-0.9,0.2-1.7,0.5-2.3s0.8-1.1,1.4-1.4
		s1.3-0.6,2-0.7s1.5-0.2,2.3-0.2s1.5,0.1,2.3,0.2c0.7,0.1,1.4,0.4,2,0.8s1.1,0.8,1.4,1.4c0.4,0.6,0.6,1.3,0.7,2.2h-3.8
		c-0.1-0.8-0.3-1.3-0.9-1.6c-0.5-0.3-1.1-0.4-1.8-0.4c-0.2,0-0.5,0-0.7,0c-0.3,0-0.5,0.1-0.7,0.2s-0.4,0.2-0.5,0.4
		c-0.2,0.2-0.2,0.4-0.2,0.7c0,0.4,0.1,0.6,0.4,0.9c0.3,0.2,0.6,0.4,1,0.5s0.9,0.3,1.4,0.4c0.5,0.1,1.1,0.2,1.7,0.4
		c0.6,0.1,1.1,0.3,1.7,0.5s1,0.4,1.5,0.7c0.4,0.3,0.8,0.7,1,1.1s0.4,1,0.4,1.7c0,1-0.2,1.8-0.6,2.4c-0.4,0.6-0.9,1.2-1.5,1.6
		c-0.6,0.4-1.3,0.7-2.1,0.8c-0.8,0.2-1.6,0.2-2.4,0.2s-1.7-0.1-2.5-0.3s-1.5-0.4-2.1-0.8c-0.6-0.4-1.1-0.9-1.5-1.6
		c-0.4-0.6-0.6-1.5-0.7-2.4h3.8C207,37.3,207.1,37.7,207.3,38z"/>
	<path class="st1" d="M219.1,24.9v-3.3h4v3.3H219.1z M223,27.1v14.5h-4V27.1H223z"/>
	<path class="st1" d="M233.1,29.7c-0.6,0-1.2,0.1-1.6,0.4s-0.8,0.7-1,1.1c-0.3,0.5-0.5,1-0.6,1.5c-0.1,0.6-0.2,1.1-0.2,1.6
		s0.1,1.1,0.2,1.6s0.3,1,0.5,1.5s0.6,0.8,1,1.1s1,0.4,1.6,0.4c1,0,1.7-0.3,2.2-0.8s0.8-1.2,1-2.1h3.8c-0.3,1.9-1,3.4-2.2,4.4
		s-2.8,1.5-4.7,1.5c-1.1,0-2.1-0.2-3-0.5c-0.9-0.4-1.7-0.9-2.3-1.5s-1.1-1.4-1.5-2.3c-0.4-0.9-0.5-1.9-0.5-3s0.2-2.2,0.5-3.1
		c0.3-1,0.8-1.8,1.4-2.5s1.4-1.2,2.3-1.6s2-0.6,3.1-0.6c0.9,0,1.7,0.1,2.5,0.3c0.8,0.2,1.5,0.6,2.1,1c0.6,0.5,1.1,1,1.5,1.7
		s0.6,1.5,0.7,2.4H236C235.8,30.5,234.8,29.7,233.1,29.7z"/>
	<path class="st1" d="M245.6,38c0.2,0.3,0.4,0.6,0.7,0.8c0.3,0.2,0.6,0.3,1,0.4c0.4,0.1,0.7,0.1,1.1,0.1c0.3,0,0.6,0,0.9-0.1
		s0.6-0.2,0.8-0.3c0.3-0.1,0.5-0.3,0.6-0.6c0.2-0.2,0.3-0.5,0.3-0.9c0-0.6-0.4-1-1.2-1.3c-0.8-0.3-1.9-0.6-3.3-0.9
		c-0.6-0.1-1.1-0.3-1.7-0.5s-1-0.4-1.5-0.7c-0.4-0.3-0.8-0.7-1-1.1c-0.3-0.4-0.4-1-0.4-1.6c0-0.9,0.2-1.7,0.5-2.3s0.8-1.1,1.4-1.4
		s1.3-0.6,2-0.7s1.5-0.2,2.3-0.2s1.5,0.1,2.3,0.2c0.7,0.1,1.4,0.4,2,0.8s1.1,0.8,1.4,1.4c0.4,0.6,0.6,1.3,0.7,2.2h-3.8
		c-0.1-0.8-0.3-1.3-0.9-1.6c-0.5-0.3-1.1-0.4-1.8-0.4c-0.2,0-0.5,0-0.7,0c-0.3,0-0.5,0.1-0.7,0.2s-0.4,0.2-0.5,0.4
		c-0.2,0.2-0.2,0.4-0.2,0.7c0,0.4,0.1,0.6,0.4,0.9c0.3,0.2,0.6,0.4,1,0.5s0.9,0.3,1.4,0.4c0.5,0.1,1.1,0.2,1.7,0.4
		c0.6,0.1,1.1,0.3,1.7,0.5s1,0.4,1.5,0.7c0.4,0.3,0.8,0.7,1,1.1s0.4,1,0.4,1.7c0,1-0.2,1.8-0.6,2.4c-0.4,0.6-0.9,1.2-1.5,1.6
		c-0.6,0.4-1.3,0.7-2.1,0.8c-0.8,0.2-1.6,0.2-2.4,0.2s-1.7-0.1-2.5-0.3s-1.5-0.4-2.1-0.8c-0.6-0.4-1.1-0.9-1.5-1.6
		c-0.4-0.6-0.6-1.5-0.7-2.4h3.8C245.3,37.3,245.4,37.7,245.6,38z"/>
	<path class="st1" d="M276.3,21.6c0.9,0,1.7,0.1,2.4,0.4c0.7,0.3,1.3,0.7,1.8,1.2s0.9,1.1,1.2,1.8c0.3,0.7,0.4,1.4,0.4,2.1
		c0,1.2-0.2,2.2-0.7,3.1s-1.3,1.5-2.4,2v0.1c0.5,0.1,1,0.4,1.3,0.7c0.4,0.3,0.6,0.7,0.9,1.1c0.2,0.4,0.4,0.9,0.5,1.4s0.2,1,0.2,1.5
		c0,0.3,0,0.7,0.1,1.1c0,0.4,0.1,0.9,0.1,1.3c0,0.4,0.1,0.9,0.2,1.3c0.1,0.4,0.3,0.7,0.5,1h-4.4c-0.2-0.6-0.4-1.4-0.4-2.3
		c-0.1-0.9-0.1-1.7-0.3-2.5c-0.1-1-0.5-1.8-1-2.3s-1.3-0.7-2.4-0.7h-4.4v7.8h-4.4v-20L276.3,21.6L276.3,21.6z M274.7,30.6
		c1,0,1.8-0.2,2.3-0.7s0.8-1.2,0.8-2.2s-0.3-1.7-0.8-2.1s-1.3-0.7-2.3-0.7h-4.8v5.6h4.8V30.6z"/>
	<path class="st1" d="M289.5,38.1c0.6,0.6,1.5,0.9,2.6,0.9c0.8,0,1.5-0.2,2.1-0.6c0.6-0.4,0.9-0.8,1.1-1.3h3.5
		c-0.6,1.7-1.4,3-2.6,3.7s-2.6,1.1-4.2,1.1c-1.1,0-2.2-0.2-3.1-0.5c-0.9-0.4-1.7-0.9-2.3-1.6s-1.1-1.5-1.5-2.4
		c-0.3-0.9-0.5-2-0.5-3.1s0.2-2.1,0.5-3c0.4-0.9,0.9-1.7,1.5-2.4c0.7-0.7,1.4-1.2,2.3-1.6s1.9-0.6,3-0.6c1.2,0,2.3,0.2,3.2,0.7
		c0.9,0.5,1.7,1.1,2.3,1.9c0.6,0.8,1,1.7,1.3,2.7s0.4,2.1,0.3,3.2h-10.4C288.6,36.6,288.9,37.5,289.5,38.1z M294,30.5
		c-0.5-0.5-1.2-0.8-2.2-0.8c-0.6,0-1.2,0.1-1.6,0.3c-0.4,0.2-0.8,0.5-1,0.8s-0.4,0.7-0.5,1c-0.1,0.4-0.2,0.7-0.2,1h6.5
		C294.8,31.8,294.5,31,294,30.5z"/>
	<path class="st1" d="M304.9,41.6l-5-14.5h4.2l3.1,9.9h0.1l3.1-9.9h3.9l-4.9,14.5H304.9z"/>
	<path class="st1" d="M316,24.9v-3.3h4v3.3H316z M320,27.1v14.5h-4V27.1H320z"/>
	<path class="st1" d="M327.4,38.1c0.6,0.6,1.5,0.9,2.6,0.9c0.8,0,1.5-0.2,2.1-0.6c0.6-0.4,0.9-0.8,1.1-1.3h3.5
		c-0.6,1.7-1.4,3-2.6,3.7s-2.6,1.1-4.2,1.1c-1.1,0-2.2-0.2-3.1-0.5c-0.9-0.4-1.7-0.9-2.3-1.6s-1.1-1.5-1.5-2.4
		c-0.3-0.9-0.5-2-0.5-3.1s0.2-2.1,0.5-3c0.4-0.9,0.9-1.7,1.5-2.4c0.7-0.7,1.4-1.2,2.3-1.6s1.9-0.6,3-0.6c1.2,0,2.3,0.2,3.2,0.7
		c0.9,0.5,1.7,1.1,2.3,1.9c0.6,0.8,1,1.7,1.3,2.7s0.4,2.1,0.3,3.2h-10.4C326.5,36.6,326.8,37.5,327.4,38.1z M331.9,30.5
		c-0.5-0.5-1.2-0.8-2.2-0.8c-0.6,0-1.2,0.1-1.6,0.3c-0.4,0.2-0.8,0.5-1,0.8s-0.4,0.7-0.5,1c-0.1,0.4-0.2,0.7-0.2,1h6.5
		C332.7,31.8,332.4,31,331.9,30.5z"/>
	<path class="st1" d="M351.7,41.6l-2.6-9.7H349l-2.5,9.7h-4.1l-4.6-14.5h4.2l2.7,9.8h0.1l2.4-9.8h3.9l2.5,9.8h0.1l2.7-9.8h4.1
		l-4.6,14.5H351.7z"/>
	<path class="st1" d="M365.4,38c0.2,0.3,0.4,0.6,0.7,0.8s0.6,0.3,1,0.4c0.4,0.1,0.7,0.1,1.1,0.1c0.3,0,0.6,0,0.9-0.1
		c0.3-0.1,0.6-0.2,0.8-0.3c0.3-0.1,0.5-0.3,0.6-0.6c0.2-0.2,0.3-0.5,0.3-0.9c0-0.6-0.4-1-1.2-1.3s-1.9-0.6-3.3-0.9
		c-0.6-0.1-1.1-0.3-1.7-0.5c-0.6-0.2-1-0.4-1.5-0.7c-0.4-0.3-0.8-0.7-1-1.1c-0.3-0.4-0.4-1-0.4-1.6c0-0.9,0.2-1.7,0.5-2.3
		c0.4-0.6,0.8-1.1,1.4-1.4s1.3-0.6,2-0.7s1.5-0.2,2.3-0.2s1.5,0.1,2.3,0.2c0.7,0.1,1.4,0.4,2,0.8s1.1,0.8,1.4,1.4
		c0.4,0.6,0.6,1.3,0.7,2.2h-3.8c-0.1-0.8-0.3-1.3-0.9-1.6s-1.1-0.4-1.8-0.4c-0.2,0-0.5,0-0.7,0c-0.3,0-0.5,0.1-0.7,0.2
		s-0.4,0.2-0.5,0.4c-0.1,0.2-0.2,0.4-0.2,0.7c0,0.4,0.1,0.6,0.4,0.9s0.6,0.4,1,0.5s0.9,0.3,1.4,0.4c0.5,0.1,1.1,0.2,1.7,0.4
		c0.6,0.1,1.1,0.3,1.7,0.5c0.5,0.2,1,0.4,1.5,0.7c0.4,0.3,0.8,0.7,1,1.1c0.3,0.5,0.4,1,0.4,1.7c0,1-0.2,1.8-0.6,2.4
		c-0.4,0.6-0.9,1.2-1.5,1.6c-0.6,0.4-1.3,0.7-2.1,0.8c-0.8,0.2-1.6,0.2-2.4,0.2c-0.8,0-1.7-0.1-2.5-0.3s-1.5-0.4-2.1-0.8
		c-0.6-0.4-1.1-0.9-1.5-1.6c-0.4-0.6-0.6-1.5-0.7-2.4h3.8C365.1,37.3,365.2,37.7,365.4,38z"/>
</g>
</svg>
