<svg width="24" height="22" viewBox="0 0 24 22" fill="none" xmlns="http://www.w3.org/2000/svg">
<path d="M11.9795 0.249023C15.2132 0.249023 17.9402 1.2959 20.1603 3.38965C22.3937 5.49684 23.5106 8.06934 23.5109 11.1071C23.5109 14.1581 22.4146 16.6982 20.2219 18.7276C17.8922 20.8882 15.1447 21.9686 11.9795 21.9686C8.86823 21.9686 6.16844 20.902 3.88007 18.7689C1.61954 16.6348 0.489101 14.0812 0.48877 11.1081C0.488438 8.13496 1.61904 5.56246 3.88057 3.39059C6.10003 1.29684 8.79983 0.249961 11.98 0.249961L11.9795 0.249023ZM12.0202 2.20746C9.40322 2.20746 7.19022 3.07371 5.38119 4.80621C3.50359 6.6159 2.56479 8.71652 2.56479 11.1081C2.56479 13.5128 3.49664 15.594 5.36032 17.3518C7.22401 19.1096 9.44347 19.9887 12.0187 19.989C14.5814 19.989 16.8151 19.1036 18.7198 17.3326C20.5285 15.6911 21.433 13.6162 21.4334 11.1081C21.4334 8.63934 20.5151 6.53871 18.6786 4.80621C16.8421 3.07371 14.6226 2.20746 12.0202 2.20746ZM15.1009 8.41277V12.8532H13.7881V18.1276H10.2105V12.8532H8.89424V8.41277C8.89391 8.32097 8.91283 8.23001 8.94993 8.14513C8.98702 8.06025 9.04154 7.98313 9.11035 7.91821C9.17917 7.8533 9.26092 7.80186 9.35089 7.76687C9.44087 7.73188 9.53729 7.71403 9.63461 7.71434H14.3621C14.4577 7.71459 14.5524 7.73274 14.6406 7.76774C14.7288 7.80274 14.8088 7.85389 14.8759 7.91824C14.949 7.98071 15.0072 8.05708 15.0468 8.14232C15.0863 8.22755 15.1063 8.31973 15.1054 8.41277H15.1009ZM10.3939 5.62043C10.3939 4.59949 10.9284 4.08887 11.9973 4.08855C13.0663 4.08824 13.6008 4.59887 13.6008 5.62043C13.6008 6.62855 13.0663 7.13277 11.9973 7.13309C10.9284 7.1334 10.3939 6.62918 10.3939 5.62043Z" fill="black"/>
</svg>
