<svg width="24" height="22" viewBox="0 0 24 22" fill="none" xmlns="http://www.w3.org/2000/svg">
<path d="M11.9799 0.249023C15.1997 0.249023 17.9404 1.30918 20.202 3.42949C21.267 4.42635 22.1062 5.61701 22.6686 6.92918C23.2342 8.25745 23.521 9.67667 23.5133 11.1081C23.5133 12.595 23.2357 13.9879 22.6805 15.287C22.1267 16.5841 21.2896 17.7567 20.2238 18.7286C19.1273 19.7583 17.8275 20.5753 16.3977 21.1332C14.9982 21.6847 13.4966 21.9686 11.9799 21.9686C10.4799 21.9727 8.99442 21.6923 7.61166 21.144C6.21051 20.5882 4.93924 19.7773 3.87054 18.7576C2.79291 17.753 1.93715 16.5569 1.35278 15.2382C0.197814 12.5887 0.201565 9.61553 1.36321 6.96855C1.95079 5.6353 2.81357 4.42558 3.90135 3.4098C6.09365 1.30293 8.78648 0.249336 11.9799 0.249023ZM12.0206 2.20746C9.38971 2.20746 7.17671 3.07371 5.3816 4.80621C4.4963 5.64538 3.78808 6.6356 3.29464 7.72418C2.81269 8.79129 2.56427 9.93925 2.56427 11.0992C2.56427 12.2591 2.81269 13.4071 3.29464 14.4742C4.28785 16.649 6.13218 18.3784 8.44346 19.3023C9.57945 19.7456 10.797 19.9729 12.0264 19.9712C13.2557 19.9695 14.4726 19.7389 15.6072 19.2925C16.7747 18.8338 17.8387 18.1691 18.7421 17.334C20.5369 15.6778 21.4344 13.6029 21.4348 11.1095C21.4411 9.9396 21.2036 8.77995 20.7356 7.69652C20.2677 6.62116 19.5758 5.64533 18.7009 4.82684C16.8514 3.0809 14.6247 2.20777 12.0206 2.20746ZM11.876 9.3048L10.3356 10.0623C10.17 9.73949 9.96793 9.51324 9.72942 9.38356C9.49091 9.25387 9.26814 9.18934 9.0611 9.18996C8.03419 9.18996 7.52073 9.8298 7.52073 11.1095C7.52073 11.6914 7.65091 12.1567 7.91129 12.5054C8.17166 12.8542 8.55526 13.0287 9.06209 13.029C9.73323 13.029 10.2061 12.7187 10.4807 12.0981L11.8989 12.7768C11.6095 13.2953 11.1745 13.7287 10.6416 14.0297C10.1087 14.3307 9.49836 14.4877 8.87725 14.4836C7.85033 14.4836 7.02135 14.1867 6.39029 13.5929C5.75924 12.9992 5.44454 12.1718 5.44619 11.1109C5.44619 10.0768 5.7647 9.2559 6.40172 8.64809C7.03874 8.04027 7.84387 7.73652 8.81713 7.73684C10.2416 7.73684 11.2625 8.26043 11.88 9.30762L11.876 9.3048ZM18.515 9.3048L16.994 10.0623C16.8284 9.73949 16.6263 9.51324 16.3878 9.38356C16.1811 9.2634 15.9448 9.19619 15.7021 9.18855C14.6752 9.18855 14.1617 9.8284 14.1617 11.1081C14.1617 11.69 14.2917 12.1553 14.5518 12.504C14.8118 12.8528 15.1953 13.0273 15.7021 13.0276C16.3736 13.0276 16.8463 12.7173 17.1202 12.0967L18.5612 12.7754C18.2609 13.2913 17.8211 13.7229 17.2867 14.0265C16.7603 14.3282 16.1555 14.4859 15.5396 14.4821C14.4981 14.4821 13.6657 14.1853 13.0422 13.5915C12.4188 12.9978 12.1071 12.1704 12.1071 11.1095C12.1071 10.0754 12.4256 9.25449 13.0626 8.64668C13.6996 8.03887 14.5047 7.73512 15.478 7.73543C16.9024 7.73543 17.9164 8.25902 18.52 9.30621L18.515 9.3048Z" fill="black"/>
</svg>
